<?xml version="1.0" standalone="no"?>
<!DOCTYPE svg PUBLIC "-//W3C//DTD SVG 20010904//EN"
 "http://www.w3.org/TR/2001/REC-SVG-20010904/DTD/svg10.dtd">
<svg version="1.0" xmlns="http://www.w3.org/2000/svg"
 width="460.000000pt" height="460.000000pt" viewBox="0 0 460.000000 460.000000"
 preserveAspectRatio="xMidYMid meet">
<metadata>
Created by potrace 1.11, written by Peter Selinger 2001-2013
</metadata>
<g transform="translate(0.000000,460.000000) scale(0.100000,-0.100000)"
fill="#000000" stroke="none">
<path d="M2210 2605 l0 -805 90 0 90 0 0 805 0 805 -90 0 -90 0 0 -805z"/>
<path d="M1704 3276 c-30 -30 -34 -40 -34 -86 0 -64 25 -104 76 -120 137 -45
232 122 123 215 -24 19 -42 25 -81 25 -44 0 -54 -4 -84 -34z"/>
<path d="M2731 3285 c-83 -70 -51 -201 54 -221 83 -15 145 40 145 130 0 41 -5
53 -34 82 -30 30 -40 34 -84 34 -39 0 -57 -6 -81 -25z"/>
<path d="M1702 2303 l3 -498 88 -3 87 -3 0 501 0 500 -90 0 -90 0 2 -497z"/>
<path d="M2720 2300 l0 -500 90 0 90 0 0 500 0 500 -90 0 -90 0 0 -500z"/>
<path d="M1734 1548 c13 -70 69 -162 141 -233 116 -117 239 -165 422 -165 129
0 188 12 288 60 126 60 224 169 274 303 11 32 21 60 21 62 0 3 -40 5 -88 5
l-88 0 -27 -56 c-15 -31 -50 -80 -77 -108 -196 -207 -553 -149 -675 110 l-26
54 -86 0 -85 0 6 -32z"/>
</g>
</svg>
