<svg id="Layer_1" data-name="Layer 1" xmlns="http://www.w3.org/2000/svg" viewBox="0 0 464 173"><defs><style>.cls-1{fill:#2e2a2b;}</style></defs><title>logo</title><g id="wordmark"><path class="cls-1" d="M162.44,139.72a4.94,4.94,0,0,1-.4,1.15,31.27,31.27,0,0,1-6.35,10.46,30.4,30.4,0,0,1-10,7,34.22,34.22,0,0,1-26.07,0,30.4,30.4,0,0,1-10-7,29.41,29.41,0,0,1-6.34-10.46,9.18,9.18,0,0,1-.41-1.15H90.22c.51,1.72,1.14,3.83,1.88,5.66a40.43,40.43,0,0,0,23,22.48,50.64,50.64,0,0,0,35.11,0A40,40,0,0,0,164,159a41,41,0,0,0,9.15-13.61c.74-1.83,1.37-3.94,1.89-5.66Z"/><path class="cls-1" d="M3.87,10.55H73V22.84H17.08V59.67h52V72h-52v50H3.87Z"/><path class="cls-1" d="M88.56,48.35h12.29V122H88.56Z"/><path class="cls-1" d="M126.36,3h12.29V122H126.36Z"/><path class="cls-1" d="M164.27,48.35h12.29V122H164.27Z"/><path class="cls-1" d="M381.56,85.17a39.69,39.69,0,0,1,3-15.72,37,37,0,0,1,8.18-12.18,36.12,36.12,0,0,1,12.41-8,44.66,44.66,0,0,1,31.45,0,35.65,35.65,0,0,1,12.41,8,37.49,37.49,0,0,1,8.17,12.18,39.9,39.9,0,0,1,3,15.72,39.77,39.77,0,0,1-3,15.73A37.07,37.07,0,0,1,449,113.07a36.21,36.21,0,0,1-12.41,8,44.66,44.66,0,0,1-31.45,0,35.56,35.56,0,0,1-12.41-8,37.42,37.42,0,0,1-8.18-12.17A41.08,41.08,0,0,1,381.56,85.17Zm13.27,0A31.56,31.56,0,0,0,396.65,96a24.88,24.88,0,0,0,13.56,14.46,28.59,28.59,0,0,0,21.61,0,25.85,25.85,0,0,0,8.29-5.83A25.53,25.53,0,0,0,445.37,96a32.84,32.84,0,0,0,0-21.62A24.83,24.83,0,0,0,431.82,59.9a28.59,28.59,0,0,0-21.61,0,24.88,24.88,0,0,0-13.56,14.46A30.41,30.41,0,0,0,394.83,85.17Z"/><path class="cls-1" d="M272,69.45a37.36,37.36,0,0,0-8.18-12.18,35.56,35.56,0,0,0-12.41-8,44.66,44.66,0,0,0-31.45,0A36.52,36.52,0,0,0,208.7,56.2V48.35H196.4v121h12.3V114.16A36.42,36.42,0,0,0,220,121a44.66,44.66,0,0,0,31.45,0,36.12,36.12,0,0,0,12.41-8A37.09,37.09,0,0,0,272,100.9a39.77,39.77,0,0,0,3-15.73A39.9,39.9,0,0,0,272,69.45ZM260.16,96a25.53,25.53,0,0,1-5.26,8.63,25.85,25.85,0,0,1-8.29,5.83,28.59,28.59,0,0,1-21.61,0A24.8,24.8,0,0,1,211.44,96a32.84,32.84,0,0,1,0-21.62A24.8,24.8,0,0,1,225,59.9a28.59,28.59,0,0,1,21.61,0,25.32,25.32,0,0,1,8.29,5.83,25.05,25.05,0,0,1,5.26,8.63,32.84,32.84,0,0,1,0,21.62Z"/><path class="cls-1" d="M366.69,69.45a37.36,37.36,0,0,0-8.18-12.18,35.61,35.61,0,0,0-12.4-8,44.66,44.66,0,0,0-31.45,0,36.68,36.68,0,0,0-11.27,6.88V48.35H291.1v121h12.29V114.16A36.36,36.36,0,0,0,314.66,121a44.66,44.66,0,0,0,31.45,0,36.07,36.07,0,0,0,12.4-8,36.94,36.94,0,0,0,8.18-12.17,39.77,39.77,0,0,0,3-15.73A39.9,39.9,0,0,0,366.69,69.45ZM354.86,96a24.88,24.88,0,0,1-13.56,14.46,28.59,28.59,0,0,1-21.61,0A24.83,24.83,0,0,1,306.14,96a32.84,32.84,0,0,1,0-21.62,25.53,25.53,0,0,1,5.26-8.63,25.85,25.85,0,0,1,8.29-5.83,28.59,28.59,0,0,1,21.61,0,24.88,24.88,0,0,1,13.56,14.46,33,33,0,0,1,0,21.62Z"/></g><g id="eyes-open"><path class="cls-1" d="M85.76,19.53a8.77,8.77,0,0,1,2.57-6.29,8.84,8.84,0,0,1,12.7,0,8.77,8.77,0,0,1,2.57,6.29A9.15,9.15,0,0,1,88.16,26,9,9,0,0,1,85.76,19.53Z"/><path class="cls-1" d="M161.41,19.53A8.77,8.77,0,0,1,164,13.24a8.84,8.84,0,0,1,12.7,0,8.77,8.77,0,0,1,2.57,6.29A9.15,9.15,0,0,1,163.81,26,9.21,9.21,0,0,1,161.41,19.53Z"/></g><g id="eyes-blink"><path class="cls-1" d="M88.33,19.24a8.84,8.84,0,0,1,12.7,0,9.06,9.06,0,0,1,2.1,3.39,10.23,10.23,0,0,0,.47-3.1A8.77,8.77,0,0,0,101,13.24a8.84,8.84,0,0,0-12.7,0,8.77,8.77,0,0,0-2.57,6.29,10.49,10.49,0,0,0,.46,3.14A8.86,8.86,0,0,1,88.33,19.24Z"/><path class="cls-1" d="M164,19.24a8.84,8.84,0,0,1,12.7,0,9.06,9.06,0,0,1,2.1,3.39,10.23,10.23,0,0,0,.47-3.1,8.77,8.77,0,0,0-2.57-6.29,8.84,8.84,0,0,0-12.7,0,8.77,8.77,0,0,0-2.57,6.29,10.29,10.29,0,0,0,.47,3.11A9,9,0,0,1,164,19.24Z"/></g></svg>